<?xml version="1.0" encoding="utf-8"?>
<!-- Generator: Adobe Illustrator 28.1.0, SVG Export Plug-In . SVG Version: 6.00 Build 0)  -->
<svg version="1.1" id="Layer_1" xmlns="http://www.w3.org/2000/svg" xmlns:xlink="http://www.w3.org/1999/xlink" x="0px" y="0px"
	 viewBox="0 0 200 200" style="enable-background:new 0 0 200 200;" xml:space="preserve">
<style type="text/css">
	.st0{clip-path:url(#SVGID_00000025432278536260719980000011524264090594141355_);}
</style>
<g>
	<defs>
		<rect id="SVGID_1_" width="200" height="200"/>
	</defs>
	<clipPath id="SVGID_00000023991708949213965410000015067427049983335607_">
		<use xlink:href="#SVGID_1_"  style="overflow:visible;"/>
	</clipPath>
	<polygon style="clip-path:url(#SVGID_00000023991708949213965410000015067427049983335607_);" points="66.67,58.33 66.67,125.14 
		97.92,125.14 97.92,70.86 	"/>
	<polygon style="clip-path:url(#SVGID_00000023991708949213965410000015067427049983335607_);" points="102.08,70.86 102.08,125.14 
		133.33,125.14 133.33,58.33 	"/>
	<polygon style="clip-path:url(#SVGID_00000023991708949213965410000015067427049983335607_);" points="97.05,136.11 93.94,136.11 
		93.94,133.28 90.9,133.28 90.9,141.7 93.94,141.7 93.94,138.62 97.05,138.62 97.05,141.7 100.09,141.7 100.09,133.28 97.05,133.28 
			"/>
	<path style="clip-path:url(#SVGID_00000023991708949213965410000015067427049983335607_);" d="M105.67,138.23l0.98-2.69l0.97,2.69
		H105.67z M104.87,133.28l-3.48,8.41h3.06l0.43-1.24h3.52l0.45,1.24h3.13l-3.48-8.41H104.87z"/>
	<path style="clip-path:url(#SVGID_00000023991708949213965410000015067427049983335607_);" d="M118.42,136.83
		c-0.31,0.15-0.65,0.22-0.99,0.19h-1.46v-1.63h1.48c0.33-0.03,0.66,0.04,0.96,0.18c0.1,0.07,0.17,0.16,0.22,0.27
		c0.05,0.11,0.07,0.22,0.06,0.34c0.01,0.12-0.01,0.25-0.06,0.36C118.6,136.66,118.52,136.76,118.42,136.83z M121.24,137.61
		c0.24-0.44,0.35-0.94,0.34-1.44c0-1.92-1.32-2.89-3.96-2.89h-4.46v8.41h2.82v-2.57h1.45l1.52,2.57h2.92l-1.69-3.15
		C120.61,138.35,120.98,138.02,121.24,137.61z"/>
	<path style="clip-path:url(#SVGID_00000023991708949213965410000015067427049983335607_);" d="M127.04,138.23l0.98-2.69l0.96,2.69
		H127.04z M129.86,133.28h-3.65l-3.47,8.41h3.06l0.43-1.24h3.52l0.45,1.24h3.13L129.86,133.28z"/>
	<polygon style="clip-path:url(#SVGID_00000023991708949213965410000015067427049983335607_);" points="72.22,138.39 70.04,133.28 
		66.67,133.28 66.67,141.7 69.38,141.7 69.38,137.6 71.08,141.7 73.25,141.7 74.95,137.6 74.95,141.7 77.72,141.7 77.72,133.28 
		74.39,133.28 	"/>
	<path style="clip-path:url(#SVGID_00000023991708949213965410000015067427049983335607_);" d="M84.29,139.72
		c-0.44,0.01-0.88-0.12-1.25-0.36c-0.37-0.24-0.66-0.59-0.83-1c-0.17-0.41-0.22-0.86-0.14-1.3c0.08-0.44,0.3-0.84,0.61-1.15
		c0.31-0.32,0.71-0.53,1.15-0.62c0.43-0.09,0.89-0.04,1.29,0.13c0.41,0.17,0.76,0.46,1,0.83c0.25,0.37,0.37,0.81,0.37,1.25
		c0,0.59-0.24,1.16-0.66,1.57c-0.42,0.42-0.98,0.65-1.57,0.65H84.29z M87.02,133.58c-0.86-0.36-1.8-0.54-2.73-0.51
		c-0.96-0.03-1.92,0.16-2.8,0.54c-0.73,0.32-1.35,0.85-1.77,1.52c-0.4,0.73-0.61,1.55-0.6,2.38s0.22,1.65,0.62,2.37
		c0.42,0.68,1.04,1.21,1.77,1.52c0.86,0.36,1.78,0.53,2.71,0.51c0.96,0.03,1.92-0.16,2.81-0.54c0.73-0.32,1.35-0.85,1.77-1.52
		c0.4-0.73,0.61-1.55,0.6-2.38c0-0.83-0.22-1.65-0.62-2.37C88.35,134.42,87.74,133.89,87.02,133.58z"/>
</g>
</svg>
